#!OML:ASF F:\VICON\USERDATA\INSTALL\rory3\rory3.ASF
:FULLY-SPECIFIED
:DEGREES
216
root -0.0531055 17.313 -20.4719 -138.978 -33.274 163.661
lowerback -12.2499 -2.69345 -0.221928
upperback -12.9338 -5.19089 0.645829
thorax -6.82462 -3.28127 0.575924
lowerneck -9.79093 -10.2004 -11.7124
upperneck 2.88333 -12.3914 2.47747
head 3.26561 -6.25079 1.78225
rclavicle -1.27222e-014 -2.70347e-014
rhumerus 24.083 51.5671 -27.6295
rradius 31.793
rwrist -19.9826
rhand 30.1312 -4.44531
rfingers 7.12502
rthumb 53.8249 -23.401
lclavicle -1.27222e-014 -2.70347e-014
lhumerus -55.2162 -70.2668 77.5568
lradius 71.9659
lwrist 13.5047
lhand 2.56339 8.73215
lfingers 7.12502
lthumb 28.0433 36.6564
rfemur -64.9466 8.17906 -11.0256
rtibia 45.2968
rfoot -41.9519 -31.5925
rtoes 53.6037
lfemur -23.6445 -9.36584 -22.3777
ltibia 24.8625
lfoot 10.7875 2.27877
ltoes -1.36102
217
root 0.0305888 17.314 -20.6814 -136.232 -31.363 160.508
lowerback -13.176 -2.7186 -4.61331
upperback -13.6697 -5.1946 -0.473575
thorax -6.98217 -3.09099 1.80216
lowerneck -9.22107 -10.7049 -12.1918
upperneck 2.48404 -13.0892 2.57398
head 3.13417 -6.59542 1.85912
rclavicle 4.5472e-014 1.90833e-014
rhumerus 21.7444 46.8855 -28.9208
rradius 29.014
rwrist -16.0225
rhand 30.8979 -4.21899
rfingers 7.12502
rthumb 54.5124 -22.7046
lclavicle 4.5472e-014 1.90833e-014
lhumerus -54.4446 -70.8269 74.1662
lradius 68.9558
lwrist 12.552
lhand 2.44843 8.64766
lfingers 7.12502
lthumb 27.9334 36.5899
rfemur -66.4436 11.365 -17.8752
rtibia 45.3215
rfoot -47.0963 -33.2201
rtoes 52.8151
lfemur -22.9182 -8.87947 -24.3186
ltibia 24.5445
lfoot 13.3049 4.13694
ltoes -3.19164
218
root 0.0341644 17.3683 -20.8064 -135.785 -32.7967 159.914
lowerback -14.4782 -3.15788 -4.53888
upperback -12.6786 -5.4512 -0.140237
thorax -5.11429 -3.18182 1.91015
lowerneck -10.516 -11.2221 -12.8297
upperneck 1.02192 -13.6104 2.56969
head 2.95071 -6.85308 1.87777
rclavicle -2.84262e-014 4.77083e-015
rhumerus 23.8385 41.4272 -25.8159
rradius 26.9248
rwrist -13.3807
rhand 30.8694 -4.63804
rfingers 7.12502
rthumb 54.4868 -23.1415
lclavicle -2.84262e-014 4.77083e-015
lhumerus -46.8611 -69.6232 65.3488
lradius 65.6205
lwrist 11.9374
lhand 2.19482 8.63928
lfingers 7.12502
lthumb 27.6909 36.6207
rfemur -64.3738 8.40379 -13.7166
rtibia 45.0909
rfoot -49.632 -21.4589
rtoes 59.3096
lfemur -21.3369 -8.63973 -22.7036
ltibia 24.7535
lfoot 15.6105 6.15204
ltoes -0.421011
219
root 0.0287187 17.4559 -20.9316 -135.038 -33.8748 159.168
lowerback -14.312 -3.1595 -3.8645
upperback -13.6192 -5.78294 -0.659425
thorax -6.35507 -3.48028 1.04705
lowerneck -8.35311 -11.2678 -12.7781
upperneck -0.426576 -14.001 2.10395
head 2.42591 -7.04555 2.08228
rclavicle -9.48824e-014 -1.59028e-014
rhumerus 22.3817 37.0916 -26.9524
rradius 24.743
rwrist -9.01601
rhand 31.0188 -4.62316
rfingers 7.12502
rthumb 54.6205 -23.0328
lclavicle -9.48824e-014 -1.59028e-014
lhumerus -48.6223 -69.8233 64.0371
lradius 62.6166
lwrist 10.6773
lhand 1.93976 8.28276
lfingers 7.12502
lthumb 27.447 36.3031
rfemur -64.271 10.9658 -16.73
rtibia 44.8276
rfoot -55.0275 -22.7381
rtoes 58.9793
lfemur -19.8815 -8.37936 -21.3897
ltibia 24.906
lfoot 17.5143 9.12789
ltoes -3.36407
220
root 0.0375946 17.5024 -21.0453 -134.332 -34.0639 157.992
lowerback -14.3295 -3.08074 -4.51267
upperback -13.4805 -5.59252 -0.962051
thorax -6.18519 -3.33946 1.0909
lowerneck -9.30129 -11.8407 -13.834
upperneck -0.779738 -14.5696 2.2391
head 2.6202 -7.33466 2.20008
rclavicle -8.76392e-014 -6.99722e-014
rhumerus 22.3604 30.7172 -26.0358
rradius 22.9595
rwrist -4.728
rhand 31.3823 -4.92239
rfingers 7.12502
rthumb 54.9452 -23.1006
lclavicle -8.76392e-014 -6.99722e-014
lhumerus -43.728 -69.4313 57.7857
lradius 59.6069
lwrist 8.89256
lhand 2.47271 8.32119
lfingers 7.12502
lthumb 27.9566 36.2596
rfemur -63.1497 9.5035 -15.9739
rtibia 44.4366
rfoot -53.5443 -23.4603
rtoes 58.7116
lfemur -18.2505 -8.84529 -20.7587
ltibia 25.6307
lfoot 16.9503 14.7108
ltoes 4.06237
221
root 0.0394611 17.5679 -21.1625 -133.553 -34.9171 156.991
lowerback -14.1235 -3.17808 -4.23074
upperback -14.1054 -5.96855 -1.58258
thorax -7.09537 -3.63 0.315891
lowerneck -8.12247 -11.8215 -13.3776
upperneck -1.56359 -14.7867 1.94584
head 2.08382 -7.4297 2.10892
rclavicle -4.03284e-014 -2.22639e-014
rhumerus 21.7364 24.6467 -27.3492
rradius 21.0983
rwrist 1.29608
rhand 31.7524 -4.73923
rfingers 7.12502
rthumb 55.2751 -22.677
lclavicle -4.03284e-014 -2.22639e-014
lhumerus -42.5951 -69.71 53.6938
lradius 56.915
lwrist 6.52496
lhand 3.57085 8.3581
lfingers 7.12502
lthumb 29.0059 36.1208
rfemur -61.7694 7.94781 -14.6547
rtibia 43.9073
rfoot -52.6194 -23.1841
rtoes 58.7327
lfemur -16.7238 -9.00682 -19.4703
ltibia 26.1606
lfoot 16.2003 20.9115
ltoes 11.7193
222
root 0.0582392 17.6268 -21.2582 -133.38 -34.7717 156.152
lowerback -13.2097 -3.01787 -4.59187
upperback -14.4946 -5.93171 -2.22177
thorax -8.09919 -3.62891 -0.0483489
lowerneck -7.61787 -12.007 -13.4766
upperneck -1.87475 -15.1063 1.93331
head 1.91868 -7.58001 2.13496
rclavicle 1.07841e-014 3.18055e-015
rhumerus 21.7418 18.8215 -27.6623
rradius 19.7877
rwrist 6.59454
rhand 31.8342 -4.95712
rfingers 7.12502
rthumb 55.348 -22.8411
lclavicle 1.07841e-014 3.18055e-015
lhumerus -39.8902 -69.7336 48.4763
lradius 54.1761
lwrist 3.36039
lhand 4.40009 7.80862
lfingers 7.12502
lthumb 29.7976 35.4323
rfemur -60.7943 7.71694 -14.691
rtibia 43.4274
rfoot -51.5756 -25.2664
rtoes 57.9501
lfemur -14.6855 -8.5651 -18.8663
ltibia 26.6396
lfoot 15.876 25.9993
ltoes 13.1366
223
root 0.0517438 17.7202 -21.3921 -133.195 -36.5055 155.604
lowerback -13.1914 -3.23236 -3.66282
upperback -14.5144 -6.28799 -2.44602
thorax -8.23012 -3.90115 -0.81301
lowerneck -7.19499 -12.2503 -13.278
upperneck -2.6719 -15.5621 1.66915
head 1.56075 -7.79888 2.0381
rclavicle 9.70069e-014 3.33958e-014
rhumerus 22.9268 14.5664 -26.583
rradius 18.1406
rwrist 9.80846
rhand 31.2626 -4.7554
rfingers 7.12502
rthumb 54.8384 -23.0103
lclavicle 9.70069e-014 3.33958e-014
lhumerus -35.724 -68.8764 42.0097
lradius 51.6263
lwrist -0.916131
lhand 6.1392 7.22994
lfingers 7.12502
lthumb 31.456 34.5435
rfemur -59.4527 10.2505 -16.1768
rtibia 42.8461
rfoot -52.0976 -33.4573
rtoes 53.1502
lfemur -12.9724 -8.20197 -16.4582
ltibia 26.9804
lfoot 20.6255 29.036
ltoes 13.0832
224
root 0.0689379 17.7702 -21.4984 -132.8 -36.2541 154.333
lowerback -12.7378 -3.34823 -4.71615
upperback -14.5092 -6.44699 -2.90145
thorax -8.45196 -3.91277 -0.688593
lowerneck -7.38503 -12.3472 -13.5003
upperneck -3.01384 -15.6724 1.80628
head 1.51807 -7.84693 2.10696
rclavicle -2.31584e-014 3.02153e-014
rhumerus 24.217 9.65604 -25.9166
rradius 17.0599
rwrist 13.9112
rhand 31.0436 -4.46189
rfingers 7.12502
rthumb 54.6427 -22.8559
lclavicle -2.31584e-014 3.02153e-014
lhumerus -31.7953 -67.6712 35.9461
lradius 48.9717
lwrist -5.64084
lhand 7.89545 6.68572
lfingers 7.12502
lthumb 33.1276 33.6589
rfemur -58.2889 10.0324 -16.604
rtibia 42.3632
rfoot -50.5376 -35.3892
rtoes 51.8196
lfemur -10.9057 -7.98929 -15.8448
ltibia 27.1272
lfoot 23.713 31.3664
ltoes 18.7001
225
root 0.0848421 17.8197 -21.6026 -132.384 -36.4603 153.26
lowerback -12.3783 -3.58448 -5.38575
upperback -14.5107 -6.76893 -3.12627
thorax -8.62845 -4.02196 -0.547346
lowerneck -7.51684 -12.5189 -13.8123
upperneck -3.641 -15.9089 1.99566
head 1.39051 -7.95403 2.2103
rclavicle -7.32522e-014 -9.54166e-015
rhumerus 25.7677 4.66917 -25.4704
rradius 16.3227
rwrist 17.9923
rhand 31.26 -4.07467
rfingers 7.12502
rthumb 54.8361 -22.3313
lclavicle -7.32522e-014 -9.54166e-015
lhumerus -28.7206 -66.2619 30.7443
lradius 46.4678
lwrist -10.3727
lhand 9.0967 6.22513
lfingers 7.12502
lthumb 34.2691 32.9488
rfemur -57.0905 9.46091 -16.4497
rtibia 41.8962
rfoot -50.3954 -34.7744
rtoes 52.4197
lfemur -8.97558 -7.78152 -14.6013
ltibia 27.1187
lfoot 27.6611 32.1986
ltoes 20.9896
